<svg xmlns="http://www.w3.org/2000/svg" viewBox="0 0 720 200" role="img" aria-label="Family relationships">
  <defs>
    <marker id="arr" markerWidth="8" markerHeight="8" refX="6" refY="3" orient="auto">
      <path d="M0,0 L6,3 L0,6 Z" fill="#94A3B8"/>
    </marker>
  </defs>
  <rect width="720" height="200" fill="#FFFFFF"/>
  
    <g transform="translate(60,70) scale(1)">
      <rect x="6" y="22" width="20" height="22" rx="5" fill="#3D9B8A"/>
      <circle cx="16" cy="12" r="9" fill="#F2C9A0"/>
      <path d="M8 10 Q16 4 24 10" fill="#2C2C2C"/>
    </g>
    <rect x="30" y="140" width="100" height="40" rx="10" fill="#F8FAFC" stroke="#CBD5E1" stroke-width="1.5"/>
    <text text-anchor="middle" font-family="system-ui,sans-serif" font-size="12" fill="#334155" x="80.0" y="152.0"><tspan x="80.0" dy="0">Self</tspan><tspan x="80.0" dy="14">Parent user</tspan></text>
    
    <g transform="translate(260,70) scale(1)">
      <rect x="6" y="22" width="20" height="22" rx="5" fill="#3D9B8A"/>
      <circle cx="16" cy="12" r="9" fill="#F2C9A0"/>
      <path d="M8 10 Q16 4 24 10" fill="#2C2C2C"/>
    </g>
    <rect x="230" y="140" width="100" height="40" rx="10" fill="#F8FAFC" stroke="#CBD5E1" stroke-width="1.5"/>
    <text text-anchor="middle" font-family="system-ui,sans-serif" font-size="12" fill="#334155" x="280.0" y="152.0"><tspan x="280.0" dy="0">Spouse</tspan><tspan x="280.0" dy="14">Parent user</tspan></text>
    
    <g transform="translate(480,75) scale(1)">
      <rect x="8" y="26" width="16" height="15" rx="5" fill="#5B8DEF"/>
      <circle cx="16" cy="13" r="7" fill="#F2C9A0"/>
      <rect x="22" y="28" width="9" height="12" rx="2" fill="#F4B942"/>
    </g>
    <rect x="450" y="140" width="110" height="40" rx="10" fill="#F8FAFC" stroke="#CBD5E1" stroke-width="1.5"/>
    <text text-anchor="middle" font-family="system-ui,sans-serif" font-size="12" fill="#334155" x="505.0" y="152.0"><tspan x="505.0" dy="0">Child</tspan><tspan x="505.0" dy="14">Student profile</tspan></text>
    
    <line x1="130" y1="100" x2="230" y2="100" stroke="#94A3B8" stroke-width="2" marker-end="url(#arr)"/>
    
    <line x1="330" y1="100" x2="450" y2="100" stroke="#94A3B8" stroke-width="2" marker-end="url(#arr)"/>
    
</svg>