<svg xmlns="http://www.w3.org/2000/svg" viewBox="0 0 720 200" role="img" aria-label="Announcement visibility">
  <defs>
    <marker id="arr" markerWidth="8" markerHeight="8" refX="6" refY="3" orient="auto">
      <path d="M0,0 L6,3 L0,6 Z" fill="#94A3B8"/>
    </marker>
  </defs>
  <rect width="720" height="200" fill="#FFFFFF"/>
  
    <g transform="translate(50,60) scale(1)">
      <rect x="6" y="22" width="20" height="22" rx="5" fill="#5C6370"/>
      <circle cx="16" cy="12" r="9" fill="#F2C9A0"/>
      <rect x="11" y="26" width="10" height="12" rx="2" fill="#fff"/>
    </g>
    <rect x="30" y="130" width="110" height="40" rx="10" fill="#F8FAFC" stroke="#CBD5E1" stroke-width="1.5"/>
    <text text-anchor="middle" font-family="system-ui,sans-serif" font-size="12" fill="#334155" x="85.0" y="150.0"><tspan x="85.0" dy="0">School-wide</tspan></text>
    
    <g transform="translate(280,60) scale(1)">
      <rect x="5" y="22" width="22" height="22" rx="5" fill="#6B5CE7"/>
      <circle cx="16" cy="12" r="9" fill="#F2C9A0"/>
      <rect x="24" y="16" width="10" height="3" rx="1" fill="#fff"/>
    </g>
    <rect x="260" y="130" width="110" height="40" rx="10" fill="#F8FAFC" stroke="#CBD5E1" stroke-width="1.5"/>
    <text text-anchor="middle" font-family="system-ui,sans-serif" font-size="12" fill="#334155" x="315.0" y="150.0"><tspan x="315.0" dy="0">Class only</tspan></text>
    
    <g transform="translate(500,65) scale(1)">
      <rect x="6" y="22" width="20" height="22" rx="5" fill="#3D9B8A"/>
      <circle cx="16" cy="12" r="9" fill="#F2C9A0"/>
      <path d="M8 10 Q16 4 24 10" fill="#2C2C2C"/>
    </g>
    <rect x="480" y="130" width="120" height="40" rx="10" fill="#F8FAFC" stroke="#CBD5E1" stroke-width="1.5"/>
    <text text-anchor="middle" font-family="system-ui,sans-serif" font-size="12" fill="#334155" x="540.0" y="150.0"><tspan x="540.0" dy="0">Family reads</tspan></text>
    
</svg>