<svg xmlns="http://www.w3.org/2000/svg" viewBox="0 0 720 200" role="img" aria-label="Parent portal hub">
  <defs>
    <marker id="arr" markerWidth="8" markerHeight="8" refX="6" refY="3" orient="auto">
      <path d="M0,0 L6,3 L0,6 Z" fill="#94A3B8"/>
    </marker>
  </defs>
  <rect width="720" height="200" fill="#FFFFFF"/>
  
    <g transform="translate(300,45) scale(1.2)">
      <rect x="6" y="22" width="20" height="22" rx="5" fill="#3D9B8A"/>
      <circle cx="16" cy="12" r="9" fill="#F2C9A0"/>
      <path d="M8 10 Q16 4 24 10" fill="#2C2C2C"/>
    </g>
    <rect x="250" y="30" width="220" height="45" rx="10" fill="#ECFDF5" stroke="#34D399" stroke-width="1.5"/>
    <text text-anchor="middle" font-family="system-ui,sans-serif" font-size="12" fill="#334155" x="360.0" y="52.5"><tspan x="360.0" dy="0">Parent portal</tspan></text>
    
    <g transform="translate(80,110) scale(1)">
      <rect x="8" y="26" width="16" height="15" rx="5" fill="#5B8DEF"/>
      <circle cx="16" cy="13" r="7" fill="#F2C9A0"/>
      <rect x="22" y="28" width="9" height="12" rx="2" fill="#F4B942"/>
    </g>
    <rect x="50" y="155" width="100" height="35" rx="10" fill="#F8FAFC" stroke="#CBD5E1" stroke-width="1.5"/>
    <text text-anchor="middle" font-family="system-ui,sans-serif" font-size="12" fill="#334155" x="100.0" y="172.5"><tspan x="100.0" dy="0">My children</tspan></text>
    
    <rect x="200" y="155" width="100" height="35" rx="10" fill="#F8FAFC" stroke="#CBD5E1" stroke-width="1.5"/>
    <text text-anchor="middle" font-family="system-ui,sans-serif" font-size="12" fill="#334155" x="250.0" y="172.5"><tspan x="250.0" dy="0">Enroll & pay</tspan></text>
    
    <rect x="350" y="155" width="100" height="35" rx="10" fill="#F8FAFC" stroke="#CBD5E1" stroke-width="1.5"/>
    <text text-anchor="middle" font-family="system-ui,sans-serif" font-size="12" fill="#334155" x="400.0" y="172.5"><tspan x="400.0" dy="0">Progress</tspan></text>
    
    <rect x="500" y="155" width="100" height="35" rx="10" fill="#F8FAFC" stroke="#CBD5E1" stroke-width="1.5"/>
    <text text-anchor="middle" font-family="system-ui,sans-serif" font-size="12" fill="#334155" x="550.0" y="172.5"><tspan x="550.0" dy="0">Announcements</tspan></text>
    
    <line x1="350" y1="75" x2="100" y2="120" stroke="#94A3B8" stroke-width="2" marker-end="url(#arr)"/>
    
    <line x1="350" y1="75" x2="250" y2="150" stroke="#94A3B8" stroke-width="2" marker-end="url(#arr)"/>
    
    <line x1="360" y1="75" x2="400" y2="150" stroke="#94A3B8" stroke-width="2" marker-end="url(#arr)"/>
    
    <line x1="360" y1="75" x2="550" y2="150" stroke="#94A3B8" stroke-width="2" marker-end="url(#arr)"/>
    
</svg>