<svg xmlns="http://www.w3.org/2000/svg" viewBox="0 0 720 200" role="img" aria-label="Platform portals">
  <defs>
    <marker id="arr" markerWidth="8" markerHeight="8" refX="6" refY="3" orient="auto">
      <path d="M0,0 L6,3 L0,6 Z" fill="#94A3B8"/>
    </marker>
  </defs>
  <rect width="720" height="200" fill="#FFFFFF"/>
  
    <rect x="40" y="50" width="120" height="60" rx="10" fill="#F8FAFC" stroke="#CBD5E1" stroke-width="1.5"/>
    <text text-anchor="middle" font-family="system-ui,sans-serif" font-size="12" fill="#334155" x="100.0" y="80.0"><tspan x="100.0" dy="0">Public website</tspan></text>
    
    <line x1="160" y1="80" x2="210" y2="80" stroke="#94A3B8" stroke-width="2" marker-end="url(#arr)"/>
    
    <rect x="210" y="50" width="100" height="60" rx="10" fill="#F8FAFC" stroke="#CBD5E1" stroke-width="1.5"/>
    <text text-anchor="middle" font-family="system-ui,sans-serif" font-size="12" fill="#334155" x="260.0" y="80.0"><tspan x="260.0" dy="0">Sign in</tspan></text>
    
    <line x1="310" y1="80" x2="360" y2="80" stroke="#94A3B8" stroke-width="2" marker-end="url(#arr)"/>
    
    <g transform="translate(365,55) scale(1)">
      <rect x="6" y="22" width="20" height="22" rx="5" fill="#3D9B8A"/>
      <circle cx="16" cy="12" r="9" fill="#F2C9A0"/>
      <path d="M8 10 Q16 4 24 10" fill="#2C2C2C"/>
    </g>
    <rect x="420" y="55" width="95" height="50" rx="10" fill="#F8FAFC" stroke="#CBD5E1" stroke-width="1.5"/>
    <text text-anchor="middle" font-family="system-ui,sans-serif" font-size="12" fill="#334155" x="467.5" y="80.0"><tspan x="467.5" dy="0">Parent</tspan></text>
    
    <g transform="translate(530,58) scale(1)">
      <rect x="8" y="26" width="16" height="15" rx="5" fill="#5B8DEF"/>
      <circle cx="16" cy="13" r="7" fill="#F2C9A0"/>
      <rect x="22" y="28" width="9" height="12" rx="2" fill="#F4B942"/>
    </g>
    <rect x="585" y="55" width="95" height="50" rx="10" fill="#F8FAFC" stroke="#CBD5E1" stroke-width="1.5"/>
    <text text-anchor="middle" font-family="system-ui,sans-serif" font-size="12" fill="#334155" x="632.5" y="80.0"><tspan x="632.5" dy="0">Student</tspan></text>
    
    <g transform="translate(40,130) scale(1)">
      <rect x="5" y="22" width="22" height="22" rx="5" fill="#6B5CE7"/>
      <circle cx="16" cy="12" r="9" fill="#F2C9A0"/>
      <rect x="24" y="16" width="10" height="3" rx="1" fill="#fff"/>
    </g>
    <rect x="95" y="125" width="80" height="45" rx="10" fill="#F8FAFC" stroke="#CBD5E1" stroke-width="1.5"/>
    <text text-anchor="middle" font-family="system-ui,sans-serif" font-size="12" fill="#334155" x="135.0" y="147.5"><tspan x="135.0" dy="0">Teacher</tspan></text>
    
    <g transform="translate(200,130) scale(1)">
      <rect x="6" y="22" width="20" height="22" rx="5" fill="#5C6370"/>
      <circle cx="16" cy="12" r="9" fill="#F2C9A0"/>
      <rect x="11" y="26" width="10" height="12" rx="2" fill="#fff"/>
    </g>
    <rect x="255" y="125" width="80" height="45" rx="10" fill="#F8FAFC" stroke="#CBD5E1" stroke-width="1.5"/>
    <text text-anchor="middle" font-family="system-ui,sans-serif" font-size="12" fill="#334155" x="295.0" y="147.5"><tspan x="295.0" dy="0">Admin</tspan></text>
    
</svg>