<svg xmlns="http://www.w3.org/2000/svg" viewBox="0 0 720 200" role="img" aria-label="Family account structure">
  <defs>
    <marker id="arr" markerWidth="8" markerHeight="8" refX="6" refY="3" orient="auto">
      <path d="M0,0 L6,3 L0,6 Z" fill="#94A3B8"/>
    </marker>
  </defs>
  <rect width="720" height="200" fill="#FFFFFF"/>
  
    <rect x="280" y="30" width="160" height="40" rx="10" fill="#F8FAFC" stroke="#94A3B8" stroke-width="1.5"/>
    <text text-anchor="middle" font-family="system-ui,sans-serif" font-size="12" fill="#334155" x="360.0" y="50.0"><tspan x="360.0" dy="0">Family Account</tspan></text>
    
    <g transform="translate(80,95) scale(1)">
      <rect x="6" y="22" width="20" height="22" rx="5" fill="#3D9B8A"/>
      <circle cx="16" cy="12" r="9" fill="#F2C9A0"/>
      <path d="M8 10 Q16 4 24 10" fill="#2C2C2C"/>
    </g>
    <rect x="30" y="155" width="100" height="35" rx="10" fill="#F8FAFC" stroke="#CBD5E1" stroke-width="1.5"/>
    <text text-anchor="middle" font-family="system-ui,sans-serif" font-size="12" fill="#334155" x="80.0" y="164.5"><tspan x="80.0" dy="0">Primary parent</tspan><tspan x="80.0" dy="14">Billing</tspan></text>
    
    <g transform="translate(220,95) scale(1)">
      <rect x="6" y="22" width="20" height="22" rx="5" fill="#3D9B8A"/>
      <circle cx="16" cy="12" r="9" fill="#F2C9A0"/>
      <path d="M8 10 Q16 4 24 10" fill="#2C2C2C"/>
    </g>
    <rect x="200" y="155" width="90" height="35" rx="10" fill="#F8FAFC" stroke="#CBD5E1" stroke-width="1.5"/>
    <text text-anchor="middle" font-family="system-ui,sans-serif" font-size="12" fill="#334155" x="245.0" y="172.5"><tspan x="245.0" dy="0">Spouse</tspan></text>
    
    <g transform="translate(400,100) scale(1)">
      <rect x="7" y="24" width="18" height="18" rx="5" fill="#5B8DEF"/>
      <circle cx="16" cy="14" r="8" fill="#F2C9A0"/>
      <rect x="22" y="26" width="10" height="14" rx="2" fill="#F4B942"/>
    </g>
    <rect x="380" y="155" width="110" height="35" rx="10" fill="#F8FAFC" stroke="#CBD5E1" stroke-width="1.5"/>
    <text text-anchor="middle" font-family="system-ui,sans-serif" font-size="12" fill="#334155" x="435.0" y="172.5"><tspan x="435.0" dy="0">Student A</tspan></text>
    
    <g transform="translate(540,100) scale(1)">
      <rect x="7" y="24" width="18" height="18" rx="5" fill="#5B8DEF"/>
      <circle cx="16" cy="14" r="8" fill="#F2C9A0"/>
      <rect x="22" y="26" width="10" height="14" rx="2" fill="#F4B942"/>
    </g>
    <rect x="520" y="155" width="110" height="35" rx="10" fill="#F8FAFC" stroke="#CBD5E1" stroke-width="1.5"/>
    <text text-anchor="middle" font-family="system-ui,sans-serif" font-size="12" fill="#334155" x="575.0" y="172.5"><tspan x="575.0" dy="0">Student B</tspan></text>
    
    <line x1="130" y1="75" x2="280" y2="55" stroke="#94A3B8" stroke-width="2" marker-end="url(#arr)"/>
    
    <line x1="250" y1="75" x2="300" y2="55" stroke="#94A3B8" stroke-width="2" marker-end="url(#arr)"/>
    
    <line x1="430" y1="80" x2="350" y2="60" stroke="#94A3B8" stroke-width="2" marker-end="url(#arr)"/>
    
    <line x1="570" y1="80" x2="400" y2="60" stroke="#94A3B8" stroke-width="2" marker-end="url(#arr)"/>
    
</svg>