<svg xmlns="http://www.w3.org/2000/svg" viewBox="0 0 720 200" role="img" aria-label="Primary parent vs spouse">
  <defs>
    <marker id="arr" markerWidth="8" markerHeight="8" refX="6" refY="3" orient="auto">
      <path d="M0,0 L6,3 L0,6 Z" fill="#94A3B8"/>
    </marker>
  </defs>
  <rect width="720" height="200" fill="#FFFFFF"/>
  
    <g transform="translate(120,55) scale(1.1)">
      <rect x="6" y="22" width="20" height="22" rx="5" fill="#3D9B8A"/>
      <circle cx="16" cy="12" r="9" fill="#F2C9A0"/>
      <path d="M8 10 Q16 4 24 10" fill="#2C2C2C"/>
    </g>
    <rect x="90" y="30" width="130" height="40" rx="10" fill="#ECFDF5" stroke="#34D399" stroke-width="1.5"/>
    <text text-anchor="middle" font-family="system-ui,sans-serif" font-size="12" fill="#334155" x="155.0" y="50.0"><tspan x="155.0" dy="0">Primary parent</tspan></text>
    
    <rect x="90" y="130" width="130" height="40" rx="10" fill="#F8FAFC" stroke="#CBD5E1" stroke-width="1.5"/>
    <text text-anchor="middle" font-family="system-ui,sans-serif" font-size="12" fill="#334155" x="155.0" y="150.0"><tspan x="155.0" dy="0">Checkout & billing</tspan></text>
    
    <g transform="translate(420,55) scale(1.1)">
      <rect x="6" y="22" width="20" height="22" rx="5" fill="#3D9B8A"/>
      <circle cx="16" cy="12" r="9" fill="#F2C9A0"/>
      <path d="M8 10 Q16 4 24 10" fill="#2C2C2C"/>
    </g>
    <rect x="390" y="30" width="130" height="40" rx="10" fill="#F8FAFC" stroke="#CBD5E1" stroke-width="1.5"/>
    <text text-anchor="middle" font-family="system-ui,sans-serif" font-size="12" fill="#334155" x="455.0" y="50.0"><tspan x="455.0" dy="0">Spouse</tspan></text>
    
    <rect x="390" y="130" width="130" height="40" rx="10" fill="#F8FAFC" stroke="#CBD5E1" stroke-width="1.5"/>
    <text text-anchor="middle" font-family="system-ui,sans-serif" font-size="12" fill="#334155" x="455.0" y="142.0"><tspan x="455.0" dy="0">View & manage</tspan><tspan x="455.0" dy="14">(usually no pay)</tspan></text>
    
</svg>