<svg xmlns="http://www.w3.org/2000/svg" viewBox="0 0 720 200" role="img" aria-label="Stakeholders at the school">
  <defs>
    <marker id="arr" markerWidth="8" markerHeight="8" refX="6" refY="3" orient="auto">
      <path d="M0,0 L6,3 L0,6 Z" fill="#94A3B8"/>
    </marker>
  </defs>
  <rect width="720" height="200" fill="#FFFFFF"/>
  
    <g transform="translate(30,45) scale(0.9)">
      <rect x="4" y="18" width="28" height="20" rx="3" fill="#E8ECF2"/>
      <polygon points="18,6 32,18 4,18" fill="#D45B5B"/>
    </g>
    <rect x="95" y="50" width="150" height="75" rx="10" fill="#EEF2FF" stroke="#A5B4FC" stroke-width="1.5"/>
    <text text-anchor="middle" font-family="system-ui,sans-serif" font-size="12" fill="#334155" x="170.0" y="87.5"><tspan x="170.0" dy="0">Sharon Chinese School</tspan></text>
    
    <line x1="245" y1="88" x2="270" y2="88" stroke="#94A3B8" stroke-width="2" marker-end="url(#arr)"/>
    
    <g transform="translate(270,65) scale(1)">
      <rect x="6" y="22" width="20" height="22" rx="5" fill="#3D9B8A"/>
      <circle cx="16" cy="12" r="9" fill="#F2C9A0"/>
      <path d="M8 10 Q16 4 24 10" fill="#2C2C2C"/>
    </g>
    <rect x="325" y="70" width="85" height="55" rx="10" fill="#F8FAFC" stroke="#CBD5E1" stroke-width="1.5"/>
    <text text-anchor="middle" font-family="system-ui,sans-serif" font-size="12" fill="#334155" x="367.5" y="97.5"><tspan x="367.5" dy="0">Parent</tspan></text>
    
    <line x1="410" y1="88" x2="435" y2="88" stroke="#94A3B8" stroke-width="2" marker-end="url(#arr)"/>
    
    <g transform="translate(435,72) scale(1)">
      <rect x="8" y="26" width="16" height="15" rx="5" fill="#5B8DEF"/>
      <circle cx="16" cy="13" r="7" fill="#F2C9A0"/>
      <rect x="22" y="28" width="9" height="12" rx="2" fill="#F4B942"/>
    </g>
    <rect x="490" y="70" width="95" height="55" rx="10" fill="#F8FAFC" stroke="#CBD5E1" stroke-width="1.5"/>
    <text text-anchor="middle" font-family="system-ui,sans-serif" font-size="12" fill="#334155" x="537.5" y="97.5"><tspan x="537.5" dy="0">Student</tspan></text>
    
    <line x1="585" y1="88" x2="610" y2="88" stroke="#94A3B8" stroke-width="2" marker-end="url(#arr)"/>
    
    <g transform="translate(610,65) scale(1)">
      <rect x="5" y="22" width="22" height="22" rx="5" fill="#6B5CE7"/>
      <circle cx="16" cy="12" r="9" fill="#F2C9A0"/>
      <rect x="24" y="16" width="10" height="3" rx="1" fill="#fff"/>
    </g>
    <rect x="665" y="70" width="45" height="55" rx="10" fill="#F8FAFC" stroke="#CBD5E1" stroke-width="1.5"/>
    <text text-anchor="middle" font-family="system-ui,sans-serif" font-size="12" fill="#334155" x="687.5" y="97.5"><tspan x="687.5" dy="0">Staff</tspan></text>
    
</svg>