<svg xmlns="http://www.w3.org/2000/svg" viewBox="0 0 720 200" role="img" aria-label="School roles">
  <defs>
    <marker id="arr" markerWidth="8" markerHeight="8" refX="6" refY="3" orient="auto">
      <path d="M0,0 L6,3 L0,6 Z" fill="#94A3B8"/>
    </marker>
  </defs>
  <rect width="720" height="200" fill="#FFFFFF"/>
  
    <g transform="translate(40,70) scale(1)">
      <rect x="6" y="22" width="20" height="22" rx="5" fill="#3D9B8A"/>
      <circle cx="16" cy="12" r="9" fill="#F2C9A0"/>
      <path d="M8 10 Q16 4 24 10" fill="#2C2C2C"/>
    </g>
    <rect x="25" y="140" width="70" height="30" rx="10" fill="#F8FAFC" stroke="#CBD5E1" stroke-width="1.5"/>
    <text text-anchor="middle" font-family="system-ui,sans-serif" font-size="12" fill="#334155" x="60.0" y="155.0"><tspan x="60.0" dy="0">Parent</tspan></text>
    
    <g transform="translate(150,75) scale(1)">
      <rect x="7" y="24" width="18" height="18" rx="5" fill="#5B8DEF"/>
      <circle cx="16" cy="14" r="8" fill="#F2C9A0"/>
      <rect x="22" y="26" width="10" height="14" rx="2" fill="#F4B942"/>
    </g>
    <rect x="135" y="140" width="70" height="30" rx="10" fill="#F8FAFC" stroke="#CBD5E1" stroke-width="1.5"/>
    <text text-anchor="middle" font-family="system-ui,sans-serif" font-size="12" fill="#334155" x="170.0" y="155.0"><tspan x="170.0" dy="0">Student</tspan></text>
    
    <g transform="translate(260,70) scale(1)">
      <rect x="5" y="22" width="22" height="22" rx="5" fill="#6B5CE7"/>
      <circle cx="16" cy="12" r="9" fill="#F2C9A0"/>
      <rect x="24" y="16" width="10" height="3" rx="1" fill="#fff"/>
    </g>
    <rect x="245" y="140" width="70" height="30" rx="10" fill="#F8FAFC" stroke="#CBD5E1" stroke-width="1.5"/>
    <text text-anchor="middle" font-family="system-ui,sans-serif" font-size="12" fill="#334155" x="280.0" y="155.0"><tspan x="280.0" dy="0">Teacher</tspan></text>
    
    <g transform="translate(370,70) scale(1)">
      <rect x="7" y="24" width="18" height="18" rx="5" fill="#5B8DEF"/>
      <circle cx="16" cy="14" r="8" fill="#F2C9A0"/>
      <rect x="22" y="26" width="10" height="14" rx="2" fill="#F4B942"/>
    </g>
    <rect x="355" y="140" width="70" height="30" rx="10" fill="#F8FAFC" stroke="#CBD5E1" stroke-width="1.5"/>
    <text text-anchor="middle" font-family="system-ui,sans-serif" font-size="12" fill="#334155" x="390.0" y="155.0"><tspan x="390.0" dy="0">TA</tspan></text>
    
    <g transform="translate(480,70) scale(1)">
      <rect x="6" y="22" width="20" height="22" rx="5" fill="#3D9B8A"/>
      <circle cx="16" cy="12" r="9" fill="#F2C9A0"/>
      <path d="M8 10 Q16 4 24 10" fill="#2C2C2C"/>
    </g>
    <rect x="465" y="140" width="80" height="30" rx="10" fill="#F8FAFC" stroke="#CBD5E1" stroke-width="1.5"/>
    <text text-anchor="middle" font-family="system-ui,sans-serif" font-size="12" fill="#334155" x="505.0" y="155.0"><tspan x="505.0" dy="0">Volunteer</tspan></text>
    
    <g transform="translate(600,70) scale(1)">
      <rect x="6" y="22" width="20" height="22" rx="5" fill="#5C6370"/>
      <circle cx="16" cy="12" r="9" fill="#F2C9A0"/>
      <rect x="11" y="26" width="10" height="12" rx="2" fill="#fff"/>
    </g>
    <rect x="585" y="140" width="80" height="30" rx="10" fill="#F8FAFC" stroke="#CBD5E1" stroke-width="1.5"/>
    <text text-anchor="middle" font-family="system-ui,sans-serif" font-size="12" fill="#334155" x="625.0" y="155.0"><tspan x="625.0" dy="0">Admin</tspan></text>
    
</svg>