<svg xmlns="http://www.w3.org/2000/svg" viewBox="0 0 720 200" role="img" aria-label="Login methods">
  <defs>
    <marker id="arr" markerWidth="8" markerHeight="8" refX="6" refY="3" orient="auto">
      <path d="M0,0 L6,3 L0,6 Z" fill="#94A3B8"/>
    </marker>
  </defs>
  <rect width="720" height="200" fill="#FFFFFF"/>
  
    <g transform="translate(300,40) scale(1.1)">
      <rect x="6" y="22" width="20" height="22" rx="5" fill="#3D9B8A"/>
      <circle cx="16" cy="12" r="9" fill="#F2C9A0"/>
      <path d="M8 10 Q16 4 24 10" fill="#2C2C2C"/>
    </g>
    <rect x="250" y="25" width="220" height="35" rx="10" fill="#F8FAFC" stroke="#CBD5E1" stroke-width="1.5"/>
    <text text-anchor="middle" font-family="system-ui,sans-serif" font-size="12" fill="#334155" x="360.0" y="42.5"><tspan x="360.0" dy="0">One user account</tspan></text>
    
    <rect x="80" y="100" width="100" height="45" rx="10" fill="#F8FAFC" stroke="#CBD5E1" stroke-width="1.5"/>
    <text text-anchor="middle" font-family="system-ui,sans-serif" font-size="12" fill="#334155" x="130.0" y="122.5"><tspan x="130.0" dy="0">Mobile SMS</tspan></text>
    
    <rect x="200" y="100" width="100" height="45" rx="10" fill="#F8FAFC" stroke="#CBD5E1" stroke-width="1.5"/>
    <text text-anchor="middle" font-family="system-ui,sans-serif" font-size="12" fill="#334155" x="250.0" y="122.5"><tspan x="250.0" dy="0">Username</tspan></text>
    
    <rect x="320" y="100" width="100" height="45" rx="10" fill="#F8FAFC" stroke="#CBD5E1" stroke-width="1.5"/>
    <text text-anchor="middle" font-family="system-ui,sans-serif" font-size="12" fill="#334155" x="370.0" y="122.5"><tspan x="370.0" dy="0">Google</tspan></text>
    
    <rect x="440" y="100" width="100" height="45" rx="10" fill="#F8FAFC" stroke="#CBD5E1" stroke-width="1.5"/>
    <text text-anchor="middle" font-family="system-ui,sans-serif" font-size="12" fill="#334155" x="490.0" y="122.5"><tspan x="490.0" dy="0">Microsoft</tspan></text>
    
    <rect x="560" y="100" width="120" height="45" rx="10" fill="#F8FAFC" stroke="#CBD5E1" stroke-width="1.5"/>
    <text text-anchor="middle" font-family="system-ui,sans-serif" font-size="12" fill="#334155" x="620.0" y="122.5"><tspan x="620.0" dy="0">Social login</tspan></text>
    
    <line x1="350" y1="60" x2="130" y2="100" stroke="#94A3B8" stroke-width="2" marker-end="url(#arr)"/>
    
    <line x1="350" y1="60" x2="250" y2="100" stroke="#94A3B8" stroke-width="2" marker-end="url(#arr)"/>
    
    <line x1="350" y1="60" x2="370" y2="100" stroke="#94A3B8" stroke-width="2" marker-end="url(#arr)"/>
    
    <line x1="350" y1="60" x2="490" y2="100" stroke="#94A3B8" stroke-width="2" marker-end="url(#arr)"/>
    
    <line x1="350" y1="60" x2="610" y2="100" stroke="#94A3B8" stroke-width="2" marker-end="url(#arr)"/>
    
</svg>