<svg xmlns="http://www.w3.org/2000/svg" viewBox="0 0 720 200" role="img" aria-label="Who fills which fields">
  <defs>
    <marker id="arr" markerWidth="8" markerHeight="8" refX="6" refY="3" orient="auto">
      <path d="M0,0 L6,3 L0,6 Z" fill="#94A3B8"/>
    </marker>
  </defs>
  <rect width="720" height="200" fill="#FFFFFF"/>
  
    <g transform="translate(60,70) scale(1)">
      <rect x="6" y="22" width="20" height="22" rx="5" fill="#3D9B8A"/>
      <circle cx="16" cy="12" r="9" fill="#F2C9A0"/>
      <path d="M8 10 Q16 4 24 10" fill="#2C2C2C"/>
    </g>
    <rect x="40" y="140" width="120" height="40" rx="10" fill="#F8FAFC" stroke="#CBD5E1" stroke-width="1.5"/>
    <text text-anchor="middle" font-family="system-ui,sans-serif" font-size="12" fill="#334155" x="100.0" y="152.0"><tspan x="100.0" dy="0">Parent fills</tspan><tspan x="100.0" dy="14">Self</tspan></text>
    
    <line x1="160" y1="90" x2="220" y2="90" stroke="#94A3B8" stroke-width="2" marker-end="url(#arr)"/>
    
    <rect x="220" y="70" width="130" height="50" rx="10" fill="#F8FAFC" stroke="#CBD5E1" stroke-width="1.5"/>
    <text text-anchor="middle" font-family="system-ui,sans-serif" font-size="12" fill="#334155" x="285.0" y="95.0"><tspan x="285.0" dy="0">Family account</tspan></text>
    
    <line x1="350" y1="90" x2="420" y2="90" stroke="#94A3B8" stroke-width="2" marker-end="url(#arr)"/>
    
    <g transform="translate(420,75) scale(0.9)">
      <rect x="8" y="26" width="16" height="15" rx="5" fill="#5B8DEF"/>
      <circle cx="16" cy="13" r="7" fill="#F2C9A0"/>
      <rect x="22" y="28" width="9" height="12" rx="2" fill="#F4B942"/>
    </g>
    <rect x="400" y="140" width="130" height="40" rx="10" fill="#F8FAFC" stroke="#CBD5E1" stroke-width="1.5"/>
    <text text-anchor="middle" font-family="system-ui,sans-serif" font-size="12" fill="#334155" x="465.0" y="160.0"><tspan x="465.0" dy="0">Child profile</tspan></text>
    
</svg>