<svg xmlns="http://www.w3.org/2000/svg" viewBox="0 0 720 200" role="img" aria-label="Grade with multiple classes">
  <defs>
    <marker id="arr" markerWidth="8" markerHeight="8" refX="6" refY="3" orient="auto">
      <path d="M0,0 L6,3 L0,6 Z" fill="#94A3B8"/>
    </marker>
  </defs>
  <rect width="720" height="200" fill="#FFFFFF"/>
  
    <rect x="280" y="35" width="160" height="40" rx="10" fill="#EEF2FF" stroke="#A5B4FC" stroke-width="1.5"/>
    <text text-anchor="middle" font-family="system-ui,sans-serif" font-size="12" fill="#334155" x="360.0" y="55.0"><tspan x="360.0" dy="0">Grade 2 Chinese</tspan></text>
    
    <line x1="360" y1="75" x2="150" y2="110" stroke="#94A3B8" stroke-width="2" marker-end="url(#arr)"/>
    
    <line x1="360" y1="75" x2="470" y2="110" stroke="#94A3B8" stroke-width="2" marker-end="url(#arr)"/>
    
    <rect x="80" y="110" width="140" height="55" rx="10" fill="#F8FAFC" stroke="#CBD5E1" stroke-width="1.5"/>
    <text text-anchor="middle" font-family="system-ui,sans-serif" font-size="12" fill="#334155" x="150.0" y="129.5"><tspan x="150.0" dy="0">Class A</tspan><tspan x="150.0" dy="14">Sat 9am</tspan></text>
    
    <rect x="480" y="110" width="140" height="55" rx="10" fill="#F8FAFC" stroke="#CBD5E1" stroke-width="1.5"/>
    <text text-anchor="middle" font-family="system-ui,sans-serif" font-size="12" fill="#334155" x="550.0" y="129.5"><tspan x="550.0" dy="0">Class B</tspan><tspan x="550.0" dy="14">Sat 11am</tspan></text>
    
    <g transform="translate(110,95) scale(0.85)">
      <rect x="7" y="24" width="18" height="18" rx="5" fill="#5B8DEF"/>
      <circle cx="16" cy="14" r="8" fill="#F2C9A0"/>
      <rect x="22" y="26" width="10" height="14" rx="2" fill="#F4B942"/>
    </g>
    <g transform="translate(510,95) scale(0.85)">
      <rect x="7" y="24" width="18" height="18" rx="5" fill="#5B8DEF"/>
      <circle cx="16" cy="14" r="8" fill="#F2C9A0"/>
      <rect x="22" y="26" width="10" height="14" rx="2" fill="#F4B942"/>
    </g>
</svg>